<mxfile host="app.diagrams.net" modified="2024-05-23T13:19:53.996Z" agent="Mozilla/5.0 (Windows NT 10.0; Win64; x64) AppleWebKit/537.36 (KHTML, like Gecko) Chrome/124.0.0.0 Safari/537.36" version="24.4.6" etag="z2KfMCHCNo7Zq-iaUZwv" type="github">
  <diagram name="페이지-1" id="VlIj2kZycJX90-Ixoee5">
    <mxGraphModel>
      <root>
        <mxCell id="0" />
        <mxCell id="1" parent="0" />
      </root>
    </mxGraphModel>
  </diagram>
</mxfile>
